<?xml version="1.0" standalone="no"?>
<!DOCTYPE svg PUBLIC "-//W3C//DTD SVG 20010904//EN"
 "http://www.w3.org/TR/2001/REC-SVG-20010904/DTD/svg10.dtd">
<svg version="1.0" xmlns="http://www.w3.org/2000/svg"
 width="574.000000pt" height="556.000000pt" viewBox="0 0 574.000000 556.000000"
 preserveAspectRatio="xMidYMid meet">

<g transform="translate(0.000000,556.000000) scale(0.100000,-0.100000)"
fill="#000000" stroke="none">
<path d="M2834 5553 l-971 -3 -429 -256 c-236 -141 -434 -261 -441 -267 -9 -9
-424 -710 -525 -887 -11 -19 -121 -207 -244 -416 l-223 -382 16 -518 16 -519
222 -400 c122 -220 238 -427 256 -461 19 -34 140 -251 268 -483 l235 -421 425
-246 426 -246 1018 10 1018 11 382 232 c210 128 398 241 418 252 30 18 71 83
301 486 147 256 371 648 498 871 l232 405 -11 395 c-6 217 -12 440 -13 495
l-2 100 -488 870 c-269 479 -497 877 -506 886 -26 25 -881 499 -895 497 -7 -2
-449 -4 -983 -5z m1180 -460 l216 -388 -252 -3 c-139 -2 -335 0 -434 3 l-182
7 -221 373 c-121 206 -221 376 -221 379 0 6 183 9 637 14 l241 2 216 -387z
m-1668 162 l-347 -215 -417 0 -417 0 360 215 360 215 404 0 404 0 -347 -215z
m705 -182 c123 -207 225 -382 226 -387 3 -11 -718 -442 -734 -440 -7 1 -55 74
-364 557 -56 86 -102 163 -103 171 0 9 145 105 369 245 204 126 373 230 376
230 4 1 107 -169 230 -376z m1255 130 l353 -198 183 -325 c100 -179 191 -341
202 -360 l21 -35 -25 16 c-14 8 -178 100 -365 202 l-340 187 -180 322 c-216
385 -217 388 -209 388 3 0 165 -89 360 -197z m-2469 -252 l93 -6 -214 -380
-214 -380 -456 -3 c-251 -1 -456 0 -456 3 0 3 100 175 221 383 122 207 223
380 226 385 5 8 668 8 800 -2z m408 -405 c119 -187 219 -345 222 -351 2 -7
-96 -186 -218 -398 l-223 -386 -16 27 c-9 15 -110 177 -223 360 -114 183 -207
337 -207 343 0 6 96 181 213 389 161 289 215 376 223 367 7 -7 110 -165 229
-351z m1985 68 c0 -3 -91 -179 -201 -390 l-202 -384 -439 0 -439 0 43 83 c24
45 117 220 208 389 l165 308 433 0 c237 0 432 -3 432 -6z m510 -242 c206 -113
376 -206 378 -207 3 -3 -427 -766 -439 -779 -6 -7 -769 418 -769 429 0 3 159
307 347 663 61 116 65 121 86 111 12 -7 191 -104 397 -217z m-1518 161 c-148
-290 -370 -687 -391 -702 -14 -10 -172 -100 -351 -201 -179 -100 -329 -185
-334 -188 -5 -3 -1 8 8 24 9 16 101 175 204 354 l188 324 339 203 c187 111
341 202 343 202 1 1 -1 -7 -6 -16z m-1739 -465 c3 -18 7 -220 9 -448 l3 -415
-40 -2 c-128 -8 -723 -33 -777 -33 l-64 0 -22 383 c-13 210 -26 419 -29 465
l-6 82 460 0 461 0 5 -32z m3902 -353 c108 -192 205 -364 215 -381 l18 -32
-220 -373 c-121 -206 -221 -375 -222 -376 -1 -2 -100 170 -220 381 l-217 384
197 349 c239 423 235 416 244 406 5 -4 97 -165 205 -358z m-4879 -122 c14
-213 23 -408 22 -433 -3 -39 -32 -90 -208 -369 -157 -249 -206 -319 -211 -305
-4 11 -12 202 -18 427 l-11 407 196 335 c108 185 199 333 201 331 3 -3 16
-179 29 -393z m1286 37 l195 -315 -6 -413 -6 -413 -197 343 -197 343 -6 405
c-6 356 -5 403 7 385 8 -11 103 -162 210 -335z m1503 -114 l400 -242 -1 -45
c-1 -24 -5 -238 -9 -474 l-8 -431 -196 -104 c-107 -58 -281 -156 -386 -219
-104 -62 -199 -118 -210 -123 -17 -8 -68 19 -295 154 -151 90 -332 197 -402
238 l-128 75 0 445 c0 245 3 462 6 482 6 37 7 37 348 229 187 106 366 207 396
225 30 18 62 32 70 32 8 1 195 -108 415 -242z m880 48 c190 -108 345 -200 345
-204 0 -4 -175 -11 -389 -15 l-389 -7 -244 147 c-133 81 -290 176 -348 211
l-104 64 392 0 393 0 344 -196z m708 -670 c120 -212 217 -387 215 -389 -2 -1
-192 -9 -423 -18 -324 -12 -421 -13 -427 -4 -85 142 -434 763 -431 767 3 3
188 10 411 16 224 6 414 11 422 12 10 1 89 -129 233 -384z m758 -152 l12 -401
-203 -356 c-112 -195 -204 -354 -206 -353 -1 2 -8 188 -15 413 l-13 410 204
347 c113 191 206 346 207 344 2 -1 8 -183 14 -404z m-1654 28 l199 -355 -5
-392 -6 -392 -207 344 -208 343 0 289 c0 309 9 539 20 526 4 -4 97 -168 207
-363z m-2255 -27 c120 -208 216 -379 214 -380 -2 -2 -196 -10 -431 -19 -358
-13 -430 -14 -436 -2 -155 261 -426 734 -422 738 4 5 629 36 778 39 l81 1 216
-377z m-928 -97 l208 -359 -18 -32 c-139 -238 -430 -724 -434 -725 -7 0 -435
772 -435 785 0 5 101 171 224 367 191 304 226 355 236 340 6 -9 105 -178 219
-376z m4330 -268 c5 -40 27 -729 26 -825 l0 -43 -448 0 -448 0 4 438 c2 240 5
438 6 439 2 3 660 30 768 32 l87 1 5 -42z m-2779 -299 c187 -111 344 -205 350
-210 5 -5 -160 -9 -398 -9 l-407 0 -340 192 c-187 106 -336 194 -331 196 8 3
549 25 736 31 48 1 63 -7 390 -200z m-827 -104 c166 -93 302 -174 302 -179 0
-7 -405 -753 -416 -765 -3 -4 -764 407 -781 423 -9 8 42 102 215 393 l227 382
76 -42 c42 -23 212 -118 377 -212z m2419 -127 c120 -199 219 -367 221 -373 2
-7 -80 -156 -181 -331 -101 -175 -198 -345 -216 -377 l-33 -58 -21 33 c-11 18
-114 184 -228 369 -115 186 -209 340 -209 344 0 13 434 755 441 755 4 0 106
-163 226 -362z m-347 335 c-1 -5 -92 -163 -203 -353 l-202 -345 -334 -198
c-183 -109 -335 -197 -336 -195 -4 3 341 640 369 683 15 23 330 214 556 339
139 76 150 81 150 69z m-835 -465 c-19 -35 -113 -207 -209 -383 l-174 -320
-441 -3 -441 -2 42 78 c24 43 117 214 208 380 l165 301 80 3 c44 2 243 5 442
6 l363 2 -35 -62z m2352 -302 c3 -3 -93 -177 -213 -387 l-218 -381 -326 6
c-179 4 -375 9 -436 12 l-111 6 204 357 c113 196 212 367 220 380 l16 24 429
-6 c237 -3 433 -8 435 -11z m-1667 -401 c126 -203 226 -373 222 -377 -13 -13
-754 -468 -762 -468 -8 0 -442 760 -444 777 -1 11 726 443 742 440 7 -1 116
-168 242 -372z m-2337 78 l289 -158 190 -373 c112 -220 182 -369 171 -363 -10
6 -169 97 -353 204 l-335 193 -178 319 c-98 176 -192 344 -208 373 l-30 54 83
-46 c46 -24 213 -116 371 -203z m1479 -545 c119 -211 220 -391 223 -400 7 -17
-19 -18 -451 -18 l-459 0 -203 400 -204 400 439 0 438 0 217 -382z m1747 24
l225 -7 -150 -91 c-82 -50 -237 -144 -344 -210 l-195 -119 -420 -3 c-231 -2
-417 0 -413 4 4 4 165 104 358 223 l350 217 183 -4 c100 -2 283 -7 406 -10z"/>
</g>
</svg>
